<svg width="51" height="51" viewBox="0 0 51 51" fill="none" xmlns="http://www.w3.org/2000/svg">
<path d="M42.3431 21.1407C42.3431 8.39589 35.4873 4.06236 29.0765 3.09538C29.0765 3.02886 29.0919 2.96235 29.0919 2.88561C29.0919 1.27908 27.6644 0 25.93 0C24.1955 0 22.8244 1.27908 22.8244 2.88561C22.8244 2.96235 22.8244 3.02886 22.8397 3.09538C16.4136 4.07259 9.51681 8.42147 9.51681 21.1662C9.51681 36.024 5.82282 37.6203 0.859985 41.7953H51C46.0627 37.605 42.3431 35.9985 42.3431 21.1407Z" fill="white"/>
<path d="M25.9556 50.14C29.4552 50.14 32.3254 47.5409 32.704 44.5274H19.2072C19.5704 47.5409 22.456 50.14 25.9556 50.14Z" fill="white"/>
</svg>
