<svg width="277" height="368" viewBox="0 0 277 368" fill="none" xmlns="http://www.w3.org/2000/svg">
<rect width="277" height="368" rx="20" fill="white"/>
<rect x="24" y="31" width="229" height="72" rx="10" fill="black"/>
<rect x="32" y="138" width="92" height="92" rx="10" fill="black"/>
<rect x="153" y="138" width="92" height="92" rx="10" fill="black"/>
<rect x="153" y="250" width="92" height="92" rx="10" fill="black"/>
<rect x="32" y="250" width="92" height="92" rx="10" fill="black"/>
<rect x="169" y="175" width="60" height="17" fill="white"/>
<rect x="63.0208" y="268" width="60" height="17" transform="rotate(45 63.0208 268)" fill="white"/>
<rect x="50.7764" y="310.703" width="60" height="17" transform="rotate(-45 50.7764 310.703)" fill="white"/>
<rect x="48" y="175" width="60" height="17" fill="white"/>
<rect x="70" y="214" width="60" height="17" transform="rotate(-90 70 214)" fill="white"/>
<rect x="169" y="287" width="60" height="17" fill="white"/>
<rect x="192" y="268" width="14" height="13" fill="white"/>
<rect x="192" y="310" width="14" height="13" fill="white"/>
</svg>
