<svg width="247" height="279" viewBox="0 0 247 279" fill="none" xmlns="http://www.w3.org/2000/svg">
<path d="M115.932 100.853C119.078 86.9259 138.922 86.9259 142.068 100.853C144.107 109.88 154.465 114.17 162.29 109.229C174.362 101.606 188.394 115.638 180.771 127.71C175.83 135.535 180.12 145.893 189.147 147.932C203.074 151.078 203.074 170.922 189.147 174.068C180.12 176.107 175.83 186.465 180.771 194.29C188.394 206.362 174.362 220.394 162.29 212.771C154.465 207.83 144.107 212.12 142.068 221.147C138.922 235.074 119.078 235.074 115.932 221.147C113.893 212.12 103.535 207.83 95.7104 212.771C83.6377 220.394 69.6057 206.362 77.2292 194.29C82.1701 186.465 77.8796 176.107 68.8532 174.068C54.9259 170.922 54.9259 151.078 68.8532 147.932C77.8796 145.893 82.1701 135.535 77.2292 127.71C69.6057 115.638 83.6377 101.606 95.7104 109.229C103.535 114.17 113.893 109.88 115.932 100.853Z" fill="white"/>
<circle cx="129.5" cy="161.5" r="21.5" fill="black"/>
<path d="M57.8014 31.8683C59.5344 24.1965 70.4656 24.1965 72.1986 31.8683C73.3217 36.8404 79.0275 39.2039 83.3375 36.4822C89.9877 32.2828 97.7172 40.0123 93.5178 46.6625C90.7961 50.9725 93.1596 56.6783 98.1317 57.8014C105.804 59.5344 105.804 70.4656 98.1317 72.1986C93.1596 73.3217 90.7961 79.0275 93.5178 83.3375C97.7172 89.9877 89.9877 97.7172 83.3375 93.5178C79.0275 90.7961 73.3217 93.1596 72.1986 98.1317C70.4656 105.804 59.5344 105.804 57.8014 98.1317C56.6783 93.1596 50.9725 90.7961 46.6625 93.5178C40.0123 97.7172 32.2828 89.9877 36.4822 83.3375C39.2039 79.0275 36.8404 73.3217 31.8683 72.1986C24.1965 70.4656 24.1965 59.5344 31.8683 57.8014C36.8404 56.6783 39.2039 50.9725 36.4822 46.6625C32.2828 40.0123 40.0123 32.2828 46.6625 36.4822C50.9725 39.2039 56.6783 36.8404 57.8014 31.8683Z" fill="white"/>
<circle cx="65.2755" cy="65.2754" r="11.8432" fill="black"/>
</svg>
