<svg width="58" height="41" viewBox="0 0 58 41" fill="none" xmlns="http://www.w3.org/2000/svg">
<path d="M57.3523 16.225L46.8523 1.225C46.3523 0.525 45.6523 0.125 44.8523 0.025C44.0523 -0.075 43.2523 0.124999 42.6523 0.624999L38.4523 4.025C37.8523 4.525 37.4523 5.225 37.3523 6.025C37.3523 6.325 37.3523 6.525 37.3523 6.825C36.9523 6.825 36.5523 6.925 36.1523 6.925C35.8523 6.925 35.6523 7.025 35.3523 7.025C33.7523 7.125 32.0523 7.625 30.2523 8.325C29.8523 8.525 29.4523 8.725 29.0523 8.925C27.2523 8.025 25.5523 7.425 23.8523 7.125C22.6523 6.925 21.5523 6.825 20.5523 7.025C20.7523 5.925 20.3523 4.725 19.4523 4.025L15.2523 0.624999C14.6523 0.124999 13.8523 -0.075 13.0523 0.025C12.2523 0.125 11.5523 0.525 11.0523 1.225L0.552273 16.225C-0.347727 17.525 -0.147727 19.425 1.15227 20.525L5.35227 23.925C5.85227 24.325 6.45227 24.525 7.15227 24.525C7.25227 24.525 7.45227 24.525 7.55227 24.525C8.05227 24.425 8.45227 24.225 8.85227 23.925C9.15227 24.825 9.65227 25.725 10.3523 26.625C10.1523 27.625 10.3523 28.725 10.8523 29.525C11.5523 30.725 12.7523 31.425 14.1523 31.425C14.5523 31.425 14.8523 31.325 15.1523 31.325C15.2523 31.925 15.4523 32.425 15.7523 32.925C16.4523 34.125 17.6523 34.825 19.0523 34.825C19.7523 34.825 20.4523 34.625 21.1523 34.225C21.2523 34.625 21.4523 35.025 21.6523 35.425C22.2523 36.325 23.0523 37.025 24.0523 37.225C24.5523 37.325 25.0523 37.325 25.4523 37.225C25.5523 37.725 25.7523 38.325 26.0523 38.825C26.7523 40.025 27.9523 40.725 29.3523 40.725C30.1523 40.725 30.8523 40.525 31.4523 40.025L34.2523 38.125C35.2523 37.425 35.8523 36.325 35.9523 35.125C36.6523 35.025 37.2523 34.625 37.7523 34.225C38.2523 33.825 38.5523 33.225 38.7523 32.725C39.0523 32.825 39.3523 32.925 39.7523 32.925C40.4523 33.025 41.1523 32.825 41.7523 32.525L42.5523 32.025L42.9523 31.725L43.3523 31.225C43.3523 31.125 43.4523 31.125 43.4523 31.025C44.8523 32.425 47.1523 32.425 48.6523 31.125C49.9523 29.925 50.3523 27.925 49.6523 26.325C49.7523 25.725 49.8523 25.125 49.8523 24.525C50.7523 24.925 51.8523 24.725 52.6523 24.025L56.8523 20.625C57.4523 20.125 57.8523 19.425 57.9523 18.625C58.0523 17.625 57.8523 16.825 57.3523 16.225ZM42.1523 9.625C42.0523 9.525 41.8523 9.225 41.7523 9.025C41.5523 8.725 41.4523 8.525 41.3523 8.425L40.1523 6.625C40.0523 6.425 40.0523 6.125 40.2523 6.025L44.4523 2.625C44.5523 2.525 44.7523 2.525 44.8523 2.725L55.3523 17.725C55.4523 17.825 55.4523 17.925 55.4523 18.025C55.4523 18.125 55.3523 18.225 55.3523 18.325L50.9523 21.825C50.8523 21.825 50.8523 21.925 50.7523 21.925C50.7523 21.925 50.6523 21.925 50.5523 21.825L44.7523 13.525L42.1523 9.625ZM39.4523 21.525C39.3523 21.325 39.3523 21.125 39.3523 20.925C39.3523 20.525 39.5523 20.225 39.7523 19.925C40.2523 19.425 41.0523 19.525 41.4523 20.125L46.8523 27.025C47.3523 27.625 47.2523 28.525 46.7523 29.025C46.5523 29.225 46.1523 29.325 45.8523 29.325C45.5523 29.325 45.2523 29.125 45.0523 28.825L39.4523 21.525ZM17.8523 6.625L15.7523 9.625C15.7523 9.625 15.6523 9.725 15.6523 9.825L7.35227 21.725C7.25227 21.825 7.25227 21.825 7.15227 21.825C7.05227 21.825 7.05227 21.825 6.95227 21.825L2.75227 18.425C2.55227 18.325 2.55227 18.025 2.65227 17.825L13.1523 2.825C13.2523 2.725 13.2523 2.725 13.3523 2.725C13.3523 2.725 13.4523 2.725 13.4523 2.825L17.6523 6.225C17.9523 6.225 17.9523 6.425 17.8523 6.625ZM11.2523 20.725L18.5523 10.325C20.9523 9.125 23.7523 9.625 26.1523 10.625C25.5523 11.025 25.0523 11.325 24.9523 11.425C23.2523 12.625 21.9523 14.025 21.3523 15.425C20.6523 16.825 20.5523 18.225 21.1523 19.325C21.7523 20.325 22.8523 20.925 24.1523 21.025C25.3523 21.125 26.7523 20.725 28.2523 19.925L33.1523 16.825C33.5523 16.625 34.2523 16.425 34.4523 16.525C34.5523 16.525 34.6523 16.825 34.6523 16.825C34.7523 17.125 34.8523 17.825 35.5523 18.525C35.8523 18.825 36.3523 19.325 37.0523 19.625C37.0523 19.725 36.9523 19.825 36.9523 19.925C35.8523 19.725 34.6523 20.025 33.7523 20.825C33.2523 21.225 32.9523 21.825 32.7523 22.325C31.4523 21.825 30.0523 22.125 28.9523 23.025C28.4523 22.425 27.7523 22.025 26.9523 21.825C25.9523 21.625 24.9523 21.825 24.0523 22.425L23.0523 23.125C22.9523 22.625 22.7523 22.125 22.5523 21.725C21.9523 20.825 21.1523 20.125 20.1523 19.925C19.1523 19.725 18.0523 19.925 17.1523 20.525L12.1523 24.025C12.0523 24.025 12.0523 24.125 11.9523 24.125C11.1523 22.825 10.9523 21.725 11.2523 20.725ZM43.5523 18.425C42.7523 17.525 41.6523 16.925 40.5523 16.925C40.0523 16.925 39.5523 17.025 39.0523 17.225C37.4523 17.025 37.2523 16.225 37.2523 16.225V16.125C36.9523 14.825 36.1523 14.225 35.5523 13.925C33.9523 13.225 32.0523 14.225 31.8523 14.325L27.0523 17.425C26.0523 18.025 25.0523 18.325 24.3523 18.225C23.9523 18.225 23.6523 18.125 23.5523 17.925C23.4523 17.725 23.4523 17.225 23.7523 16.525C24.2523 15.525 25.2523 14.525 26.5523 13.525L26.6523 13.425C27.1523 13.025 28.9523 11.725 31.3523 10.725C33.6523 9.725 36.8523 8.925 39.4523 10.225L46.7523 20.625C46.9523 21.325 47.1523 22.025 47.1523 22.725L43.5523 18.425ZM13.1523 28.125C12.9523 27.825 12.8523 27.425 12.9523 27.025C13.0523 26.625 13.2523 26.325 13.5523 26.125L18.5523 22.625C18.7523 22.525 18.9523 22.425 19.1523 22.425C19.5523 22.425 19.9523 22.625 20.1523 23.025C20.5523 23.725 20.3523 24.625 19.7523 25.025L14.7523 28.525C14.4523 28.725 14.1523 28.725 13.8523 28.725C13.5523 28.625 13.3523 28.425 13.1523 28.125ZM18.0523 31.525C17.6523 30.825 17.8523 29.925 18.4523 29.525L25.5523 24.625C25.7523 24.525 25.9523 24.425 26.1523 24.425C26.2523 24.425 26.3523 24.425 26.3523 24.425C26.6523 24.525 26.9523 24.725 27.1523 25.025C27.5523 25.725 27.3523 26.625 26.7523 27.025L22.7523 29.725C22.6523 29.825 22.5523 29.925 22.3523 30.025L19.6523 31.925C19.3523 32.125 19.0523 32.125 18.7523 32.125C18.4523 32.025 18.1523 31.825 18.0523 31.525ZM23.6523 32.825C23.7523 32.525 23.8523 32.325 24.0523 32.125L27.2523 29.925C27.4523 29.825 27.6523 29.825 27.9523 29.925C28.2523 30.025 28.5523 30.225 28.7523 30.525C28.9523 30.825 29.0523 31.225 28.9523 31.625C28.8523 31.925 28.7523 32.125 28.6523 32.325L25.6523 34.425C25.3523 34.625 25.0523 34.625 24.7523 34.625C24.4523 34.525 24.1523 34.325 23.9523 34.025C23.6523 33.625 23.5523 33.225 23.6523 32.825ZM28.2523 37.325C27.9523 36.725 27.9523 36.025 28.4523 35.525L31.4523 33.425C31.7523 33.225 32.0523 33.225 32.3523 33.225C32.6523 33.325 32.9523 33.525 33.1523 33.825C33.5523 34.525 33.3523 35.425 32.7523 35.825L29.9523 37.825C29.6523 38.025 29.3523 38.025 29.0523 38.025C28.7523 37.925 28.4523 37.725 28.2523 37.325ZM33.3523 30.825L30.3523 27.125C30.1523 26.825 30.0523 26.525 30.0523 26.225C30.0523 25.825 30.2523 25.425 30.5523 25.125C30.7523 24.925 31.0523 24.825 31.4523 24.825C31.7523 24.825 32.0523 25.025 32.2523 25.325L36.1523 30.225C36.3523 30.525 36.4523 30.925 36.4523 31.325C36.4523 31.725 36.2523 32.025 35.9523 32.325C35.7523 32.525 35.5523 32.625 35.2523 32.625C34.8523 31.625 34.1523 31.125 33.3523 30.825ZM35.4523 22.725C35.6523 22.525 35.9523 22.425 36.2523 22.425C36.6523 22.425 36.9523 22.625 37.1523 22.925L41.2523 28.325C41.3523 28.525 41.3523 28.725 41.3523 28.925C41.3523 29.325 41.1523 29.625 40.8523 29.925C40.6523 30.125 40.3523 30.225 39.9523 30.225C39.6523 30.225 39.3523 30.025 39.1523 29.725L35.2523 24.825C35.0523 24.525 34.9523 24.125 34.9523 23.725C35.0523 23.325 35.2523 23.025 35.4523 22.725Z" fill="white"/>
</svg>
