<?xml version="1.0" encoding="UTF-8" standalone="no" ?>
<!DOCTYPE svg PUBLIC "-//W3C//DTD SVG 1.1//EN" "http://www.w3.org/Graphics/SVG/1.1/DTD/svg11.dtd">
<svg xmlns="http://www.w3.org/2000/svg" xmlns:xlink="http://www.w3.org/1999/xlink" version="1.1" width="236.45000000000002" height="250.85" xml:space="preserve">
<desc>Created with Fabric.js 1.6.0-rc.1</desc>
<defs></defs>
<g style="stroke: none; stroke-width: 1; stroke-dasharray: none; stroke-linecap: butt; stroke-linejoin: miter; stroke-miterlimit: 10; fill: none; fill-rule: nonzero; opacity: 1;" transform="translate(10 10) scale(0.45 0.45)" >
  <path d="M 304 363.12 c -8.848 0 -16 7.168 -16 16 V 384 H 64 V 96 h 224 v 16 c 0 8.832 7.152 16 16 16 c 8.848 0 16 -7.168 16 -16 V 48 c 0 -26.464 -21.536 -48 -48 -48 H 80 C 53.536 0 32 21.536 32 48 v 416 c 0 26.464 21.536 48 48 48 h 192 c 26.464 0 48 -21.536 48 -48 v -84.88 C 320 370.288 312.848 363.12 304 363.12 z M 64 48 c 0 -8.816 7.168 -16 16 -16 h 192 c 8.832 0 16 7.184 16 16 v 32 H 64 V 48 z M 288 464 c 0 8.816 -7.168 16 -16 16 H 80 c -8.832 0 -16 -7.184 -16 -16 v -64 h 224 V 464 z" style="stroke: none; stroke-width: 1; stroke-dasharray: none; stroke-linecap: butt; stroke-linejoin: miter; stroke-miterlimit: 10; fill: #000000; fill-rule: nonzero; opacity: 1;" transform=" matrix(1 0 0 1 0 0) " stroke-linecap="round" />
  <path d="M 200 48 h -48 c -4.416 0 -8 3.584 -8 8 s 3.584 8 8 8 h 48 c 4.416 0 8 -3.584 8 -8 S 204.416 48 200 48 z" style="stroke: none; stroke-width: 1; stroke-dasharray: none; stroke-linecap: butt; stroke-linejoin: miter; stroke-miterlimit: 10; fill: #000000; fill-rule: nonzero; opacity: 1;" transform=" matrix(1 0 0 1 0 0) " stroke-linecap="round" />
  <path d="M 176 464 c 13.232 0 24 -10.768 24 -24 s -10.768 -24 -24 -24 s -24 10.768 -24 24 S 162.768 464 176 464 z M 176 432 c 4.4 0 8 3.584 8 8 c 0 4.416 -3.6 8 -8 8 c -4.4 0 -8 -3.584 -8 -8 C 168 435.584 171.6 432 176 432 z" style="stroke: none; stroke-width: 1; stroke-dasharray: none; stroke-linecap: butt; stroke-linejoin: miter; stroke-miterlimit: 10; fill: #000000; fill-rule: nonzero; opacity: 1;" transform=" matrix(1 0 0 1 0 0) " stroke-linecap="round" />
  <path d="M 464 112 h -48 c -7.056 0 -13.296 4.64 -15.328 11.408 L 356.096 272 h -135.6 l -24 -96 H 352 c 8.848 0 16 -7.168 16 -16 c 0 -8.832 -7.152 -16 -16 -16 H 176 c -4.928 0 -9.584 2.272 -12.608 6.16 c -3.024 3.888 -4.112 8.944 -2.912 13.728 l 32 128 C 194.272 299.008 200.656 304 208 304 h 32 h 96 h 32 c 7.056 0 13.296 -4.64 15.328 -11.408 L 427.904 144 H 464 c 8.848 0 16 -7.168 16 -16 C 480 119.168 472.848 112 464 112 z" style="stroke: none; stroke-width: 1; stroke-dasharray: none; stroke-linecap: butt; stroke-linejoin: miter; stroke-miterlimit: 10; fill: #000000; fill-rule: nonzero; opacity: 1;" transform=" matrix(1 0 0 1 0 0) " stroke-linecap="round" />
  <path d="M 304 336 c 0 17.648 14.352 32 32 32 s 32 -14.352 32 -32 s -14.352 -32 -32 -32 S 304 318.352 304 336 z M 336 320 c 8.832 0 16 7.184 16 16 c 0 8.816 -7.168 16 -16 16 c -8.832 0 -16 -7.184 -16 -16 C 320 327.184 327.168 320 336 320 z" style="stroke: none; stroke-width: 1; stroke-dasharray: none; stroke-linecap: butt; stroke-linejoin: miter; stroke-miterlimit: 10; fill: #000000; fill-rule: nonzero; opacity: 1;" transform=" matrix(1 0 0 1 0 0) " stroke-linecap="round" />
  <path d="M 208 336 c 0 17.648 14.352 32 32 32 s 32 -14.352 32 -32 s -14.352 -32 -32 -32 S 208 318.352 208 336 z M 240 320 c 8.832 0 16 7.184 16 16 c 0 8.816 -7.168 16 -16 16 c -8.832 0 -16 -7.184 -16 -16 C 224 327.184 231.168 320 240 320 z" style="stroke: none; stroke-width: 1; stroke-dasharray: none; stroke-linecap: butt; stroke-linejoin: miter; stroke-miterlimit: 10; fill: #000000; fill-rule: nonzero; opacity: 1;" transform=" matrix(1 0 0 1 0 0) " stroke-linecap="round" />
</g>
</svg>