<svg width="202" height="231" viewBox="0 0 202 231" fill="none" xmlns="http://www.w3.org/2000/svg">
<path d="M122.4 163.404C118.418 163.404 115.2 166.63 115.2 170.604V172.8H14.4V43.2H115.2V50.4C115.2 54.3744 118.418 57.6 122.4 57.6C126.382 57.6 129.6 54.3744 129.6 50.4V21.6C129.6 9.6912 119.909 0 108 0H21.6C9.6912 0 0 9.6912 0 21.6V208.8C0 220.709 9.6912 230.4 21.6 230.4H108C119.909 230.4 129.6 220.709 129.6 208.8V170.604C129.6 166.63 126.382 163.404 122.4 163.404ZM14.4 21.6C14.4 17.6328 17.6256 14.4 21.6 14.4H108C111.974 14.4 115.2 17.6328 115.2 21.6V36H14.4V21.6ZM115.2 208.8C115.2 212.767 111.974 216 108 216H21.6C17.6256 216 14.4 212.767 14.4 208.8V180H115.2V208.8Z" fill="#FF0000"/>
<path d="M75.6 21.6H54C52.0128 21.6 50.4 23.2128 50.4 25.2C50.4 27.1872 52.0128 28.8 54 28.8H75.6C77.5872 28.8 79.2 27.1872 79.2 25.2C79.2 23.2128 77.5872 21.6 75.6 21.6Z" fill="#FF0000"/>
<path d="M64.8 208.8C70.7544 208.8 75.6 203.954 75.6 198C75.6 192.046 70.7544 187.2 64.8 187.2C58.8456 187.2 54 192.046 54 198C54 203.954 58.8456 208.8 64.8 208.8ZM64.8 194.4C66.78 194.4 68.4 196.013 68.4 198C68.4 199.987 66.78 201.6 64.8 201.6C62.82 201.6 61.2 199.987 61.2 198C61.2 196.013 62.82 194.4 64.8 194.4Z" fill="#FF0000"/>
<path d="M194.4 50.4H172.8C169.625 50.4 166.817 52.488 165.902 55.5336L145.843 122.4H84.8232L74.0232 79.2H144C147.982 79.2 151.2 75.9744 151.2 72C151.2 68.0256 147.982 64.8 144 64.8H64.8C62.5824 64.8 60.4872 65.8224 59.1264 67.572C57.7656 69.3216 57.276 71.5968 57.816 73.7496L72.216 131.35C73.0224 134.554 75.8952 136.8 79.2 136.8H93.6H136.8H151.2C154.375 136.8 157.183 134.712 158.098 131.666L178.157 64.8H194.4C198.382 64.8 201.6 61.5744 201.6 57.6C201.6 53.6256 198.382 50.4 194.4 50.4Z" fill="#FF0000"/>
<path d="M122.4 151.2C122.4 159.142 128.858 165.6 136.8 165.6C144.742 165.6 151.2 159.142 151.2 151.2C151.2 143.258 144.742 136.8 136.8 136.8C128.858 136.8 122.4 143.258 122.4 151.2ZM136.8 144C140.774 144 144 147.233 144 151.2C144 155.167 140.774 158.4 136.8 158.4C132.826 158.4 129.6 155.167 129.6 151.2C129.6 147.233 132.826 144 136.8 144Z" fill="#FF0000"/>
<path d="M79.2 151.2C79.2 159.142 85.6584 165.6 93.6 165.6C101.542 165.6 108 159.142 108 151.2C108 143.258 101.542 136.8 93.6 136.8C85.6584 136.8 79.2 143.258 79.2 151.2ZM93.6 144C97.5744 144 100.8 147.233 100.8 151.2C100.8 155.167 97.5744 158.4 93.6 158.4C89.6256 158.4 86.4 155.167 86.4 151.2C86.4 147.233 89.6256 144 93.6 144Z" fill="#FF0000"/>
</svg>
