<svg width="51" height="61" viewBox="0 0 51 61" fill="none" xmlns="http://www.w3.org/2000/svg">
<path d="M28.6984 24.5158C28.4873 24.6832 28.2644 24.819 28.0395 24.9301H30.1721C31.0194 23.9415 31.0343 22.8322 30.4102 22.0441C29.7676 21.2313 28.9431 21.0785 27.5682 21.5494C26.5724 21.8685 26.1066 21.9295 25.8706 21.6312C25.6708 21.3789 25.661 20.976 26.2466 20.5112C26.8969 19.997 27.4752 19.8753 27.7884 19.7886L27.2433 18.5628C26.8312 18.6537 26.3246 18.8495 25.6985 19.3012L25.3853 18.9047C25.3051 18.8032 25.1855 18.7315 25.0443 18.7165C24.9065 18.7001 24.7738 18.7421 24.6707 18.8223L24.5841 18.8919C24.4819 18.9727 24.4115 19.0917 24.3944 19.2317C24.3782 19.3707 24.42 19.5038 24.5012 19.6059L24.8644 20.0643C24.0492 21.0187 23.9827 22.0844 24.6116 22.8776C25.3045 23.7529 26.3206 23.6831 27.5442 23.2433C28.3899 22.9392 28.8504 22.9273 29.1216 23.2692C29.4079 23.6315 29.2133 24.1082 28.6984 24.5158Z" fill="white"/>
<path d="M11.8773 24.9303L32.6595 8.46965L35.1129 6.52563C35.5083 6.213 36.0817 6.27984 36.3949 6.67479L38.3338 9.12279L45.0115 17.5539C45.096 17.6591 45.1482 17.7793 45.1787 17.905C45.2528 18.2079 45.1658 18.5358 44.9363 18.7655C44.9122 18.7895 44.8901 18.8157 44.8637 18.8365L44.8604 18.8386L42.4137 20.7778L37.1707 24.9303H39.2286L45.658 19.8389C46.6026 19.0901 46.7633 17.7057 46.0154 16.76L37.3982 5.88155C36.6491 4.937 35.265 4.77652 34.3192 5.52472L9.81738 24.9303H11.8773Z" fill="white"/>
<path d="M36.2874 24.9303L42.1007 20.3251C41.1748 18.7696 41.4053 16.7771 42.6598 15.4711C42.6613 15.4701 42.6613 15.4701 42.6619 15.469L37.8816 9.43482C36.327 10.3614 34.3338 10.1299 33.0284 8.8764L12.759 24.9303H22.5511C21.0545 22.2643 21.382 19.0913 23.4814 17.4279C25.857 15.5463 29.5982 16.3121 31.8363 19.1377C33.2484 20.9198 33.7227 23.0941 33.2874 24.9303H36.2874Z" fill="white"/>
<path d="M50.6311 40.1373C50.4865 39.9943 50.2986 39.9221 50.1104 39.9221H39.8166C38.8764 39.9221 37.9357 40.281 37.2177 40.9987C36.4996 41.7164 36.141 42.6573 36.141 43.5989C36.141 44.5395 36.4997 45.4805 37.2177 46.1984C37.9356 46.9161 38.876 47.2751 39.8166 47.2751H50.1104C50.2986 47.2751 50.4864 47.2031 50.6311 47.0592C50.7744 46.9161 50.8463 46.728 50.8463 46.5395V40.6573C50.8463 40.4695 50.7741 40.2807 50.6311 40.1373ZM39.8166 45.4516C38.7933 45.4516 37.9634 44.6217 37.9634 43.5984C37.9634 42.5749 38.7933 41.7449 39.8166 41.7449C40.8402 41.7449 41.6701 42.5749 41.6701 43.5984C41.6701 44.6219 40.8402 45.4516 39.8166 45.4516Z" fill="white"/>
<path d="M36.3503 47.0642C35.4249 46.1382 34.9144 44.9079 34.9144 43.5985C34.9144 42.2888 35.4249 41.0582 36.3503 40.1316C37.2763 39.2063 38.507 38.6966 39.816 38.6966H49.455V29.8732C49.455 28.9322 49.096 27.9916 48.3783 27.2737C47.6606 26.556 46.7197 26.197 45.7782 26.197H3.91211C3.59853 26.197 3.28471 26.0774 3.04595 25.838C2.80564 25.5986 2.68638 25.2853 2.68638 24.9712V24.8897C2.68638 24.5767 2.80529 24.2626 3.04595 24.0231C3.28483 23.7837 3.59865 23.6638 3.91211 23.6638H5.16988L6.25538 21.1317H3.83038C2.88976 21.1317 1.94854 21.4901 1.23143 22.2084C0.512537 22.9257 0.153564 23.867 0.153564 24.8073V57.3238C0.153564 58.2648 0.512894 59.2054 1.23143 59.9233C1.94854 60.641 2.8894 61 3.83038 61H45.7784C46.72 61 47.6606 60.6413 48.3785 59.9233C49.0959 59.2054 49.4552 58.2648 49.4552 57.3238V48.4999H39.8162C38.5075 48.4999 37.2765 47.9905 36.3503 47.0642ZM46.6359 37.1034C46.6359 37.3054 46.4715 37.471 46.2689 37.471C46.0664 37.471 45.9014 37.3054 45.9014 37.1034V35.3874C45.9014 35.1855 46.0664 35.0199 46.2689 35.0199C46.4715 35.0199 46.6359 35.1855 46.6359 35.3874V37.1034ZM46.6359 33.4273C46.6359 33.6287 46.4715 33.7943 46.2689 33.7943C46.0664 33.7943 45.9014 33.6287 45.9014 33.4273V31.7113C45.9014 31.5094 46.0664 31.3438 46.2689 31.3438C46.4715 31.3438 46.6359 31.5094 46.6359 31.7113V33.4273ZM45.5842 29.0152H45.7782C46.2357 29.0152 46.6359 29.416 46.6359 29.8729V30.0674C46.6359 30.2705 46.472 30.4352 46.2689 30.4352C46.0658 30.4352 45.9014 30.2705 45.9014 30.0674V29.8729C45.9014 29.8195 45.8331 29.7505 45.7784 29.7505H45.5844C45.3813 29.7505 45.2163 29.5855 45.2163 29.3829C45.2163 29.1796 45.3813 29.0154 45.5842 29.0152ZM42.3292 29.0152H44.0442C44.2467 29.0152 44.4129 29.1805 44.4129 29.3829C44.4129 29.5849 44.2467 29.7505 44.0442 29.7505H42.3292C42.1266 29.7505 41.9614 29.5849 41.9614 29.3829C41.9614 29.1804 42.1266 29.0154 42.3292 29.0152ZM38.6521 29.0152H40.3677C40.5703 29.0152 40.7359 29.1805 40.7359 29.3829C40.7359 29.5849 40.5703 29.7505 40.3677 29.7505H38.6521C38.4496 29.7505 38.2849 29.5849 38.2849 29.3829C38.2849 29.1804 38.4496 29.0154 38.6521 29.0152ZM2.9728 30.0677V29.8731C2.9728 29.4162 3.37323 29.0154 3.83074 29.0154H4.0247C4.22819 29.0154 4.39225 29.1798 4.39225 29.3832C4.39225 29.5857 4.22819 29.7507 4.0247 29.7507H3.83074C3.77676 29.7507 3.70778 29.8197 3.70778 29.8731V30.0677C3.70778 30.2708 3.54372 30.4354 3.34059 30.4354C3.13745 30.4354 2.97244 30.2708 2.97244 30.0677H2.9728ZM2.97244 31.7113C2.97244 31.5094 3.13805 31.3438 3.34059 31.3438C3.54313 31.3438 3.70778 31.5094 3.70778 31.7113V33.4273C3.70778 33.6287 3.54313 33.7943 3.34059 33.7943C3.13805 33.7943 2.97244 33.6287 2.97244 33.4273V31.7113ZM2.97244 35.3875C2.97244 35.1856 3.13805 35.02 3.34059 35.02C3.54313 35.02 3.70778 35.1856 3.70778 35.3875V37.1035C3.70778 37.3055 3.54313 37.4711 3.34059 37.4711C3.13805 37.4711 2.97244 37.3055 2.97244 37.1035V35.3875ZM2.97244 39.064C2.97244 38.8621 3.13805 38.6964 3.34059 38.6964C3.54313 38.6964 3.70778 38.8621 3.70778 39.064V40.78C3.70778 40.9819 3.54313 41.1475 3.34059 41.1475C3.13805 41.1475 2.97244 40.9819 2.97244 40.78V39.064ZM2.97244 42.7405C2.97244 42.5385 3.13805 42.3729 3.34059 42.3729C3.54313 42.3729 3.70778 42.5385 3.70778 42.7405V44.4564C3.70778 44.659 3.54313 44.824 3.34059 44.824C3.13805 44.824 2.97244 44.659 2.97244 44.4564V42.7405ZM2.97244 46.417C2.97244 46.2151 3.13805 46.0495 3.34059 46.0495C3.54313 46.0495 3.70778 46.2151 3.70778 46.417V48.133C3.70778 48.3356 3.54313 48.5 3.34059 48.5C3.13805 48.5 2.97244 48.3356 2.97244 48.133V46.417ZM2.97244 50.0931C2.97244 49.8912 3.13805 49.7256 3.34059 49.7256C3.54313 49.7256 3.70778 49.8912 3.70778 50.0931V51.8084C3.70778 52.0115 3.54313 52.1765 3.34059 52.1765C3.13805 52.1765 2.97244 52.0115 2.97244 51.8084V50.0931ZM2.97244 53.7696C2.97244 53.5676 3.13805 53.402 3.34059 53.402C3.54313 53.402 3.70778 53.5676 3.70778 53.7696V55.4856C3.70778 55.6881 3.54313 55.8531 3.34059 55.8531C3.13805 55.8531 2.97244 55.6881 2.97244 55.4856V53.7696ZM4.02446 58.1817H3.8299C3.37276 58.1817 2.97197 57.7807 2.97197 57.3238V57.1292C2.97197 56.9261 3.13698 56.7617 3.34011 56.7617C3.54325 56.7617 3.7073 56.9261 3.7073 57.1292V57.3238C3.7073 57.3772 3.77629 57.4462 3.83026 57.4462H4.02482C4.22795 57.4462 4.3926 57.6108 4.3926 57.8137C4.39249 58.0174 4.22819 58.1815 4.02446 58.1817ZM7.28058 58.1815H5.56495C5.36241 58.1815 5.19716 58.0155 5.19716 57.8137C5.19716 57.6118 5.36253 57.4462 5.56495 57.4462H7.28058C7.48217 57.4462 7.64837 57.6118 7.64837 57.8137C7.64837 58.0155 7.48217 58.1815 7.28058 58.1815ZM7.28058 29.7505H5.56495C5.36241 29.7505 5.19716 29.5849 5.19716 29.3829C5.19716 29.1804 5.36253 29.0152 5.56495 29.0152H7.28058C7.48217 29.0152 7.64837 29.1805 7.64837 29.3829C7.64837 29.5849 7.48217 29.7505 7.28058 29.7505ZM10.9568 58.1815H9.24212C9.03899 58.1815 8.87374 58.0155 8.87374 57.8137C8.87374 57.6118 9.03911 57.4462 9.24212 57.4462H10.9568C11.1587 57.4462 11.3244 57.6118 11.3244 57.8137C11.3242 58.0155 11.1586 58.1815 10.9568 58.1815ZM10.9568 29.7505H9.24212C9.03899 29.7505 8.87374 29.5849 8.87374 29.3829C8.87374 29.1804 9.03911 29.0152 9.24212 29.0152H10.9568C11.1587 29.0152 11.3244 29.1805 11.3244 29.3829C11.3242 29.5849 11.1586 29.7505 10.9568 29.7505ZM14.6333 58.1815H12.9173C12.7147 58.1815 12.5501 58.0155 12.5501 57.8137C12.5501 57.6118 12.7147 57.4462 12.9173 57.4462H14.6333C14.8352 57.4462 15.0014 57.6118 15.0014 57.8137C15.0014 58.0155 14.8352 58.1815 14.6333 58.1815ZM14.6333 29.7505H12.9173C12.7147 29.7505 12.5501 29.5849 12.5501 29.3829C12.5501 29.1804 12.7147 29.0152 12.9173 29.0152H14.6333C14.8352 29.0152 15.0014 29.1805 15.0014 29.3829C15.0014 29.5849 14.8352 29.7505 14.6333 29.7505ZM18.3095 58.1815H16.5942C16.3917 58.1815 16.2264 58.0155 16.2264 57.8137C16.2264 57.6118 16.3918 57.4462 16.5942 57.4462H18.3095C18.512 57.4462 18.677 57.6118 18.677 57.8137C18.6769 58.0155 18.5119 58.1815 18.3095 58.1815ZM18.3095 29.7505H16.5942C16.3917 29.7505 16.2264 29.5849 16.2264 29.3829C16.2264 29.1804 16.3918 29.0152 16.5942 29.0152H18.3095C18.512 29.0152 18.677 29.1805 18.677 29.3829C18.6769 29.5849 18.5119 29.7505 18.3095 29.7505ZM21.9862 58.1815H20.2705C20.068 58.1815 19.9028 58.0155 19.9028 57.8137C19.9028 57.6118 20.0681 57.4462 20.2705 57.4462H21.9862C22.1878 57.4462 22.3534 57.6118 22.3534 57.8137C22.3535 58.0155 22.1879 58.1815 21.9862 58.1815ZM21.9862 29.7505H20.2705C20.068 29.7505 19.9028 29.5849 19.9028 29.3829C19.9028 29.1804 20.0681 29.0152 20.2705 29.0152H21.9862C22.1878 29.0152 22.3534 29.1805 22.3534 29.3829C22.3535 29.5849 22.1879 29.7505 21.9862 29.7505ZM25.6621 58.1815H23.9469C23.7443 58.1815 23.5797 58.0155 23.5797 57.8137C23.5797 57.6118 23.7443 57.4462 23.9469 57.4462H25.6621C25.8647 57.4462 26.0299 57.6118 26.0299 57.8137C26.0299 58.0155 25.8646 58.1815 25.6621 58.1815ZM25.6621 29.7505H23.9469C23.7443 29.7505 23.5797 29.5849 23.5797 29.3829C23.5797 29.1804 23.7443 29.0152 23.9469 29.0152H25.6621C25.8647 29.0152 26.0299 29.1805 26.0299 29.3829C26.0299 29.5849 25.8646 29.7505 25.6621 29.7505ZM29.3392 58.1815H27.623C27.4214 58.1815 27.2552 58.0155 27.2552 57.8137C27.2552 57.6118 27.4214 57.4462 27.623 57.4462H29.3392C29.5417 57.4462 29.7064 57.6118 29.7064 57.8137C29.7064 58.0155 29.5417 58.1815 29.3392 58.1815ZM29.3392 29.7505H27.623C27.4214 29.7505 27.2552 29.5849 27.2552 29.3829C27.2552 29.1804 27.4214 29.0152 27.623 29.0152H29.3392C29.5417 29.0152 29.7064 29.1805 29.7064 29.3829C29.7064 29.5849 29.5417 29.7505 29.3392 29.7505ZM33.0157 58.1815H31.3C31.0975 58.1815 30.9322 58.0155 30.9322 57.8137C30.9322 57.6118 31.0976 57.4462 31.3 57.4462H33.0157C33.2172 57.4462 33.3832 57.6118 33.3832 57.8137C33.3832 58.0155 33.2172 58.1815 33.0157 58.1815ZM33.0157 29.7505H31.3C31.0975 29.7505 30.9322 29.5849 30.9322 29.3829C30.9322 29.1804 31.0976 29.0152 31.3 29.0152H33.0157C33.2172 29.0152 33.3832 29.1805 33.3832 29.3829C33.3832 29.5849 33.2172 29.7505 33.0157 29.7505ZM34.9765 29.0152H36.6912C36.8937 29.0152 37.0589 29.1805 37.0589 29.3829C37.0589 29.5849 36.8936 29.7505 36.6912 29.7505H34.9765C34.7739 29.7505 34.6077 29.5849 34.6077 29.3829C34.6077 29.1804 34.7741 29.0154 34.9765 29.0152ZM36.6913 58.1815H34.9766C34.7741 58.1815 34.6079 58.0155 34.6079 57.8137C34.6079 57.6118 34.7741 57.4462 34.9766 57.4462H36.6913C36.8938 57.4462 37.0591 57.6118 37.0591 57.8137C37.0591 58.0155 36.8938 58.1815 36.6913 58.1815ZM45.9014 50.0931C45.9014 49.8912 46.0664 49.7256 46.2689 49.7256C46.4715 49.7256 46.6359 49.8912 46.6359 50.0931V51.8084C46.6359 52.0115 46.4715 52.1765 46.2689 52.1765C46.0664 52.1765 45.9014 52.0115 45.9014 51.8084V50.0931ZM45.9014 53.7696C45.9014 53.5676 46.0664 53.402 46.2689 53.402C46.4715 53.402 46.6359 53.5676 46.6359 53.7696V55.4856C46.6359 55.6881 46.4715 55.8531 46.2689 55.8531C46.0664 55.8531 45.9014 55.6881 45.9014 55.4856V53.7696ZM45.5848 57.4458H45.7788C45.8331 57.4458 45.9017 57.3772 45.9017 57.3234V57.1289C45.9017 56.9258 46.0661 56.7613 46.2693 56.7613C46.4724 56.7613 46.6362 56.9258 46.6362 57.1289V57.3234C46.6362 57.7806 46.236 58.1814 45.7785 58.1814H45.5846C45.3814 58.1814 45.2164 58.0173 45.2164 57.8136C45.2163 57.6108 45.3813 57.4462 45.5848 57.4458ZM42.3292 57.4462H44.0442C44.2467 57.4462 44.4129 57.6118 44.4129 57.8137C44.4129 58.0157 44.2467 58.1815 44.0442 58.1815H42.3292C42.1266 58.1815 41.9614 58.0155 41.9614 57.8137C41.9614 57.6119 42.1266 57.4462 42.3292 57.4462ZM40.7359 57.8137C40.7359 58.0157 40.5703 58.1815 40.3677 58.1815H38.6521C38.4496 58.1815 38.2849 58.0155 38.2849 57.8137C38.2849 57.6118 38.4496 57.4462 38.6521 57.4462H40.3677C40.5703 57.4462 40.7359 57.6118 40.7359 57.8137Z" fill="white"/>
<path d="M45.1974 21.8232L42.8751 23.6636H45.9443V23.5825C45.9443 22.9551 45.7048 22.3277 45.2264 21.8489C45.2174 21.8397 45.2074 21.8324 45.1974 21.8232Z" fill="white"/>
<path d="M14.6241 19.5613L16.0924 18.398C16.0988 18.3816 16.1027 18.3675 16.11 18.3505C16.4369 17.5883 16.8884 17.2058 17.1226 16.9813L16.059 16.1615C15.74 16.4381 15.3871 16.8508 15.0529 17.5471L14.5889 17.3473C14.4691 17.2961 14.3297 17.29 14.2004 17.3424C14.0696 17.3948 13.9729 17.4946 13.921 17.6145L13.8771 17.717C13.8268 17.8366 13.8204 17.9757 13.8728 18.1059C13.924 18.2359 14.0243 18.3325 14.1436 18.3837L14.6816 18.614C14.6098 18.9523 14.5924 19.2694 14.6241 19.5613Z" fill="white"/>
<path d="M7.35011 24.9303L16.0194 4.70693L17.2529 1.82991C17.4517 1.36729 17.9888 1.15247 18.4516 1.35132L21.3229 2.58133L30.8852 6.68146L32 5.79814C31.9085 5.74084 31.8127 5.68746 31.7106 5.64409L18.9554 0.176708C17.8476 -0.298784 16.5529 0.219361 16.0771 1.32654L5.96021 24.9303H7.35011Z" fill="white"/>
<path d="M28.1482 6.10371L21.0721 3.07074C20.1456 4.62625 18.2826 5.37112 16.5376 4.88979L7.99951 24.8073L12.4461 21.2857C11.7455 19.9044 11.6125 18.3505 12.2109 16.9532C13.4047 14.1677 17.0592 13.0611 20.3734 14.4815C20.5155 14.5425 20.654 14.6087 20.7906 14.677L28.3107 8.72065C27.9761 7.91085 27.9017 6.99406 28.1472 6.10681C28.1482 6.10526 28.1482 6.10431 28.1482 6.10371Z" fill="white"/>
</svg>
