<svg width="100" height="115" viewBox="0 0 100 115" fill="none" xmlns="http://www.w3.org/2000/svg">
<path d="M15.2612 24.2394H73.7622C75.5623 24.2394 77.0216 22.7801 77.0216 20.98C77.0216 19.1799 75.5623 17.7205 73.7622 17.7205H15.2612C13.4611 17.7205 12.0017 19.1799 12.0017 20.98C12.0017 22.7801 13.4611 24.2394 15.2612 24.2394Z" fill="white"/>
<path d="M42.5779 72.3484H15.2612C13.4611 72.3484 12.0017 73.8078 12.0017 75.6079C12.0017 77.408 13.4611 78.8673 15.2612 78.8673H42.5779C44.378 78.8673 45.8374 77.408 45.8374 75.6079C45.8374 73.8078 44.378 72.3484 42.5779 72.3484Z" fill="white"/>
<path d="M42.5779 90.5575H15.2612C13.4611 90.5575 12.0017 92.0169 12.0017 93.8169C12.0017 95.617 13.4611 97.0764 15.2612 97.0764H42.5779C44.378 97.0764 45.8374 95.617 45.8374 93.8169C45.8374 92.0169 44.378 90.5575 42.5779 90.5575Z" fill="white"/>
<path d="M89.0234 23.8913V10.9935C89.0234 4.93176 84.0916 0 78.0299 0H10.9935C4.93176 0 0 4.93176 0 10.9935V103.803C0 109.865 4.93176 114.797 10.9935 114.797H78.0299C84.0916 114.797 89.0234 109.865 89.0234 103.803V66.3719L99.3558 37.9839C101.925 30.923 96.4684 23.5576 89.0234 23.8913ZM82.5049 103.803H82.5045C82.5045 106.271 80.4971 108.278 78.0299 108.278H10.9935C8.52628 108.278 6.5189 106.271 6.5189 103.803V10.9935C6.5189 8.52628 8.52628 6.5189 10.9935 6.5189H78.0299C80.4971 6.5189 82.5045 8.52628 82.5045 10.9935V26.5306C79.9165 28.8196 79.6114 30.774 76.8856 38.262C76.4858 36.9139 75.2398 35.9296 73.7618 35.9296H15.2612C13.4611 35.9296 12.0017 37.3889 12.0017 39.189C12.0017 40.9891 13.4611 42.4485 15.2612 42.4485H73.7622C74.4267 42.4485 75.0438 42.2485 75.5592 41.9074L71.1073 54.139H15.2612C13.4611 54.139 12.0017 55.5984 12.0017 57.3985C12.0017 59.1985 13.4611 60.6579 15.2612 60.6579H68.7344L61.6501 80.1225C61.428 80.7326 61.3932 81.3954 61.5506 82.0256L64.6875 94.6053C65.2463 96.8456 67.9004 97.8082 69.7661 96.4536L80.2555 88.833C81.2876 88.0829 81.3758 87.385 82.5049 84.282V103.803ZM93.2298 35.7544L82.7009 64.6822V64.6827L75.617 84.1451L69.843 88.3398L68.1164 81.415L85.7296 33.0247C86.4793 30.9639 88.7748 29.8861 90.8447 30.6393C92.9173 31.3933 93.9847 33.6814 93.2298 35.7544Z" fill="white"/>
</svg>
