<svg width="42" height="42" viewBox="0 0 42 42" fill="none" xmlns="http://www.w3.org/2000/svg">
<path fill-rule="evenodd" clip-rule="evenodd" d="M19.4118 28.1794C17.2218 25.9804 15.1188 23.8774 12.9168 21.6874C10.1178 18.7114 9.6018 15.9514 10.9038 14.9854L13.5708 13.4464C14.3713 12.9834 14.9552 12.2215 15.1942 11.3282C15.4333 10.4349 15.308 9.48329 14.8458 8.68236L10.8438 1.74336C10.6145 1.34661 10.3094 0.998908 9.94572 0.720109C9.58207 0.441309 9.16706 0.236874 8.72439 0.118476C8.28172 7.91177e-05 7.82007 -0.0299606 7.36579 0.0300729C6.91152 0.0901063 6.47352 0.239037 6.0768 0.46836L3.4098 2.00736C-5.2422 7.00236 4.8018 23.0464 9.0018 27.2464L13.8498 32.0944C18.0498 36.2944 34.0938 46.3384 39.0888 37.6864L40.6278 35.0164C41.09 34.2154 41.2153 33.2638 40.9762 32.3705C40.7372 31.4772 40.1533 30.7154 39.3528 30.2524L32.4168 26.2474C31.6159 25.7852 30.6642 25.6598 29.7709 25.8989C28.8776 26.138 28.1158 26.7219 27.6528 27.5224L26.1108 30.1924C25.1478 31.4914 22.3908 30.9724 19.4118 28.1764V28.1794Z" fill="white"/>
</svg>
