<svg width="646" height="658" viewBox="0 0 646 658" fill="none" xmlns="http://www.w3.org/2000/svg">
<path d="M307.5 0.599844C253.5 4.09984 196.8 23.4998 152 53.7998C104.7 85.7998 67.2 129 42.9 179.4C29.6 207 21.3 233 15.6 265C11.3 289 10.4 325.2 13.4 353C17.4 390.4 31.1 435.2 49.6 471.8L54.9 482.1L42.6 518.8C35.8 539 23.5 575.8 15.2 600.6C6.8 625.5 0 646.5 0 647.5C0 648.4 1.3 649.7 2.9 650.3C5.5 651.3 5.8 651.7 5.3 654.8C4.7 658 4.8 658.2 7.1 657.5C11.2 656.2 100.7 627.7 138.5 615.5C158.3 609.2 175.3 604 176.3 604C177.2 604 181.5 605.7 185.8 607.9C222.4 626.3 261.4 637.3 302.9 641.1C319.3 642.5 352.7 641.8 368.8 639.5C464.2 626.3 545.4 573.6 595.4 492.7C611.7 466.3 627.2 429.5 635.5 397.5C643.4 366.8 647.2 328.7 645.1 299.3C639.7 221.2 609.5 152 557 97.5998C506.1 44.8998 441.3 12.2998 367.5 2.39984C356.7 0.999844 319.3 -0.200156 307.5 0.599844ZM346.6 68.9998C382.3 71.8998 411.6 79.7998 442.5 94.8998C484.4 115.5 519.5 146.3 545.5 185.5C565.5 215.6 577.8 248 582.6 283.4C584.9 300.2 584.9 334.2 582.6 351.4C566.3 472.3 466.5 565.5 345.4 573.1C302.7 575.7 263 568.7 224.2 551.7C213.5 547 195.8 537.4 190.3 533.4C188.6 532.1 186.4 531 185.4 531C184.5 531 163.2 537.5 138.2 545.5C113.2 553.5 92.6 560 92.5 559.8C92.3 559.6 98.7 540.1 106.6 516.5C114.5 492.8 121 472.3 121 470.7C121 469.1 119.2 465.4 116.6 461.7C74.8 401.8 61.2 319.1 81.5 249C86 233.8 89.7 224.5 97 210C117 170.9 147.5 136.8 185 111.8C232.3 80.1998 291.4 64.5998 346.6 68.9998Z" fill="white"/>
<path d="M214.3 161.4C212 162.1 208.7 163.7 206.8 164.8C201.7 168 186.9 183.8 182.3 191C167.6 213.9 164.3 244.4 173.1 274.2C179.8 296.7 188 313.9 203 337.1C222 366.3 234.3 382.1 254 402.4C283.6 432.9 308.5 450 346.7 465.9C374.9 477.7 395.7 484.4 407.4 485.6C415.5 486.4 433.2 483.6 443.6 479.8C458 474.6 474.5 463 480.9 453.6C487.3 444 493.9 422.3 494.7 407.9L495.3 398.4L492.2 394.8C490 392.4 481 387 462.8 377.2C419.6 354 414.1 351.8 407.3 355.4C405.6 356.2 399.2 362.7 393.2 369.7C375.4 390.4 371.7 394 368.7 394C364.9 394 340 381.3 328.4 373.5C314.9 364.3 306.1 356.9 295 345.4C281.8 331.7 267.5 312.1 259.5 296.8L257.7 293.2L264.9 285.3C274.4 275.2 278.3 269.1 282.1 258.5C286 247.7 285.8 244.4 280.1 229.5C275 216.2 270.9 205.2 263.8 186.1C258 170.4 253.7 164 247.7 162.1C242 160.4 219 159.9 214.3 161.4Z" fill="white"/>
</svg>
